<svg width="176" height="69" viewBox="0 0 176 69" fill="none" xmlns="http://www.w3.org/2000/svg">
<path d="M2 67H174" stroke="black" stroke-width="3.74671" stroke-linecap="round"/>
<path d="M4.59766 20.1094H55.6094" stroke="black" stroke-width="3.7488" stroke-linecap="round"/>
<path d="M26.5822 47.1562L38.922 32" stroke="black" stroke-width="3.7331" stroke-linecap="round"/>
<path d="M20.0001 39.6641L26.1837 47.1172" stroke="black" stroke-width="3.78465" stroke-linecap="round"/>
<path d="M15 2V10" stroke="black" stroke-width="3.73254" stroke-linecap="round"/>
<path d="M44 2V10" stroke="black" stroke-width="3.73254" stroke-linecap="round"/>
<path fill-rule="evenodd" clip-rule="evenodd" d="M10 4H8.88672C3.98047 4 0 7.98047 0 12.8867V52.8672C0 57.7734 3.98047 61.75 8.88672 61.75H48.8672C53.7734 61.75 57.75 57.7734 57.75 52.8672V12.8867C57.75 8.01487 53.829 4.05587 48.9703 4.00059C48.4809 4.01981 48.001 4.50886 48 4.99841V8C48 9 48.5 9 49 9C51.4492 9 53 10.5508 53 13V53C53 55.4531 51.4492 57 49 57H9C6.54687 57 5 55.3203 5 52.8672V13C5 10.5508 6.54687 9 9 9H10C10.5 9 11 8.5 11 8L11 4.99726C10.9982 4.49817 10.4991 4 10 4ZM39 4H39.0014C39.501 4.00095 40 4.50048 40 5V8C40 8.5 39.5 9 39 9H20C19.5005 9 19.001 8.50095 19 8.00144L19 9V5C19 4.5 19.5 4 20 4H39Z" fill="black"/>
<path d="M73.5703 18.375H70.3516V28H68.4922V18.375H65.2812V16.7969H73.5703V18.375ZM76.9922 28.1875C75.7578 28.1875 74.7708 27.8151 74.0312 27.0703C73.2969 26.3203 72.9297 25.3281 72.9297 24.0938C72.9297 22.75 73.3125 21.7005 74.0781 20.9453C74.849 20.1901 75.8854 19.8125 77.1875 19.8125C78.4375 19.8125 79.4115 20.1797 80.1094 20.9141C80.8073 21.6484 81.1562 22.6667 81.1562 23.9688C81.1562 25.2448 80.7786 26.2682 80.0234 27.0391C79.2734 27.8047 78.263 28.1875 76.9922 28.1875ZM77.0781 21.2578C76.3698 21.2578 75.8099 21.5052 75.3984 22C74.987 22.4948 74.7812 23.1771 74.7812 24.0469C74.7812 24.8854 74.9896 25.5469 75.4062 26.0312C75.8229 26.5104 76.3802 26.75 77.0781 26.75C77.7917 26.75 78.3385 26.513 78.7188 26.0391C79.1042 25.5651 79.2969 24.8906 79.2969 24.0156C79.2969 23.1354 79.1042 22.4557 78.7188 21.9766C78.3385 21.4974 77.7917 21.2578 77.0781 21.2578ZM89.9844 28H88.1719V26.7344H88.1406C87.6146 27.7031 86.7969 28.1875 85.6875 28.1875C83.7969 28.1875 82.8516 27.0521 82.8516 24.7812V20H84.6641V24.5938C84.6641 26.0312 85.2188 26.75 86.3281 26.75C86.8646 26.75 87.3047 26.5521 87.6484 26.1562C87.9974 25.7604 88.1719 25.2422 88.1719 24.6016V20H89.9844V28ZM98.0781 27.6328C97.4375 28.0026 96.6797 28.1875 95.8047 28.1875C94.6172 28.1875 93.6589 27.8177 92.9297 27.0781C92.2005 26.3333 91.8359 25.3698 91.8359 24.1875C91.8359 22.8698 92.2266 21.8125 93.0078 21.0156C93.7943 20.2135 94.8438 19.8125 96.1562 19.8125C96.8854 19.8125 97.5286 19.9401 98.0859 20.1953V21.8828C97.5286 21.4661 96.9349 21.2578 96.3047 21.2578C95.5391 21.2578 94.9115 21.5182 94.4219 22.0391C93.9323 22.5547 93.6875 23.2318 93.6875 24.0703C93.6875 24.8984 93.9167 25.5521 94.375 26.0312C94.8385 26.5104 95.4583 26.75 96.2344 26.75C96.8854 26.75 97.5 26.5182 98.0781 26.0547V27.6328ZM106.992 28H105.18V23.625C105.18 22.0417 104.651 21.25 103.594 21.25C103.062 21.25 102.615 21.4792 102.25 21.9375C101.885 22.3958 101.703 22.9818 101.703 23.6953V28H99.8828V16.1562H101.703V21.3281H101.734C102.339 20.3177 103.203 19.8125 104.328 19.8125C106.104 19.8125 106.992 20.8984 106.992 23.0703V28ZM117.148 28.1875C115.914 28.1875 114.927 27.8151 114.188 27.0703C113.453 26.3203 113.086 25.3281 113.086 24.0938C113.086 22.75 113.469 21.7005 114.234 20.9453C115.005 20.1901 116.042 19.8125 117.344 19.8125C118.594 19.8125 119.568 20.1797 120.266 20.9141C120.964 21.6484 121.312 22.6667 121.312 23.9688C121.312 25.2448 120.935 26.2682 120.18 27.0391C119.43 27.8047 118.419 28.1875 117.148 28.1875ZM117.234 21.2578C116.526 21.2578 115.966 21.5052 115.555 22C115.143 22.4948 114.938 23.1771 114.938 24.0469C114.938 24.8854 115.146 25.5469 115.562 26.0312C115.979 26.5104 116.536 26.75 117.234 26.75C117.948 26.75 118.495 26.513 118.875 26.0391C119.26 25.5651 119.453 24.8906 119.453 24.0156C119.453 23.1354 119.26 22.4557 118.875 21.9766C118.495 21.4974 117.948 21.2578 117.234 21.2578ZM127.422 17.6328C127.177 17.4922 126.898 17.4219 126.586 17.4219C125.706 17.4219 125.266 17.9193 125.266 18.9141V20H127.125V21.4219H125.273V28H123.461V21.4219H122.094V20H123.461V18.7031C123.461 17.8594 123.737 17.1953 124.289 16.7109C124.841 16.2214 125.531 15.9766 126.359 15.9766C126.807 15.9766 127.161 16.026 127.422 16.125V17.6328ZM140.836 27.5312C139.992 27.9688 138.943 28.1875 137.688 28.1875C136.062 28.1875 134.76 27.6745 133.781 26.6484C132.802 25.6224 132.312 24.276 132.312 22.6094C132.312 20.8177 132.862 19.3698 133.961 18.2656C135.065 17.1615 136.458 16.6094 138.141 16.6094C139.224 16.6094 140.122 16.763 140.836 17.0703V18.9141C140.081 18.4661 139.247 18.2422 138.336 18.2422C137.122 18.2422 136.138 18.6302 135.383 19.4062C134.633 20.1823 134.258 21.2188 134.258 22.5156C134.258 23.75 134.609 24.7344 135.312 25.4688C136.016 26.1979 136.94 26.5625 138.086 26.5625C139.143 26.5625 140.06 26.3125 140.836 25.8125V27.5312ZM144.578 28H142.758V16.1562H144.578V28ZM153.086 28H151.328V26.75H151.297C150.745 27.7083 149.935 28.1875 148.867 28.1875C148.081 28.1875 147.464 27.974 147.016 27.5469C146.573 27.1198 146.352 26.5547 146.352 25.8516C146.352 24.3411 147.221 23.4609 148.961 23.2109L151.336 22.875C151.336 21.7344 150.794 21.1641 149.711 21.1641C148.758 21.1641 147.898 21.4922 147.133 22.1484V20.5625C147.977 20.0625 148.951 19.8125 150.055 19.8125C152.076 19.8125 153.086 20.8073 153.086 22.7969V28ZM151.336 24.0703L149.656 24.3047C149.135 24.3724 148.742 24.5 148.477 24.6875C148.216 24.8698 148.086 25.1927 148.086 25.6562C148.086 25.9948 148.206 26.2734 148.445 26.4922C148.69 26.7057 149.016 26.8125 149.422 26.8125C149.974 26.8125 150.43 26.6198 150.789 26.2344C151.154 25.8438 151.336 25.3542 151.336 24.7656V24.0703ZM154.805 27.75V26.0703C155.482 26.5859 156.229 26.8438 157.047 26.8438C158.141 26.8438 158.688 26.5208 158.688 25.875C158.688 25.6927 158.641 25.5391 158.547 25.4141C158.453 25.2839 158.326 25.1693 158.164 25.0703C158.008 24.9714 157.82 24.8828 157.602 24.8047C157.388 24.7266 157.148 24.638 156.883 24.5391C156.555 24.4089 156.258 24.2708 155.992 24.125C155.732 23.9792 155.513 23.8151 155.336 23.6328C155.164 23.4453 155.034 23.2344 154.945 23C154.857 22.7656 154.812 22.4922 154.812 22.1797C154.812 21.7943 154.904 21.4557 155.086 21.1641C155.268 20.8672 155.513 20.6198 155.82 20.4219C156.128 20.2188 156.477 20.0677 156.867 19.9688C157.258 19.8646 157.661 19.8125 158.078 19.8125C158.818 19.8125 159.479 19.9245 160.062 20.1484V21.7344C159.5 21.349 158.854 21.1562 158.125 21.1562C157.896 21.1562 157.688 21.1797 157.5 21.2266C157.318 21.2734 157.161 21.3385 157.031 21.4219C156.901 21.5052 156.799 21.6068 156.727 21.7266C156.654 21.8411 156.617 21.9688 156.617 22.1094C156.617 22.2812 156.654 22.4271 156.727 22.5469C156.799 22.6667 156.906 22.7734 157.047 22.8672C157.193 22.9557 157.365 23.0391 157.562 23.1172C157.766 23.1901 157.997 23.2708 158.258 23.3594C158.602 23.5 158.909 23.6432 159.18 23.7891C159.456 23.9349 159.69 24.1016 159.883 24.2891C160.076 24.4714 160.224 24.6849 160.328 24.9297C160.432 25.1693 160.484 25.4557 160.484 25.7891C160.484 26.1953 160.391 26.5495 160.203 26.8516C160.016 27.1536 159.766 27.4036 159.453 27.6016C159.141 27.7995 158.779 27.9453 158.367 28.0391C157.961 28.138 157.531 28.1875 157.078 28.1875C156.203 28.1875 155.445 28.0417 154.805 27.75ZM161.711 27.75V26.0703C162.388 26.5859 163.135 26.8438 163.953 26.8438C165.047 26.8438 165.594 26.5208 165.594 25.875C165.594 25.6927 165.547 25.5391 165.453 25.4141C165.359 25.2839 165.232 25.1693 165.07 25.0703C164.914 24.9714 164.727 24.8828 164.508 24.8047C164.294 24.7266 164.055 24.638 163.789 24.5391C163.461 24.4089 163.164 24.2708 162.898 24.125C162.638 23.9792 162.419 23.8151 162.242 23.6328C162.07 23.4453 161.94 23.2344 161.852 23C161.763 22.7656 161.719 22.4922 161.719 22.1797C161.719 21.7943 161.81 21.4557 161.992 21.1641C162.174 20.8672 162.419 20.6198 162.727 20.4219C163.034 20.2188 163.383 20.0677 163.773 19.9688C164.164 19.8646 164.568 19.8125 164.984 19.8125C165.724 19.8125 166.385 19.9245 166.969 20.1484V21.7344C166.406 21.349 165.76 21.1562 165.031 21.1562C164.802 21.1562 164.594 21.1797 164.406 21.2266C164.224 21.2734 164.068 21.3385 163.938 21.4219C163.807 21.5052 163.706 21.6068 163.633 21.7266C163.56 21.8411 163.523 21.9688 163.523 22.1094C163.523 22.2812 163.56 22.4271 163.633 22.5469C163.706 22.6667 163.812 22.7734 163.953 22.8672C164.099 22.9557 164.271 23.0391 164.469 23.1172C164.672 23.1901 164.904 23.2708 165.164 23.3594C165.508 23.5 165.815 23.6432 166.086 23.7891C166.362 23.9349 166.596 24.1016 166.789 24.2891C166.982 24.4714 167.13 24.6849 167.234 24.9297C167.339 25.1693 167.391 25.4557 167.391 25.7891C167.391 26.1953 167.297 26.5495 167.109 26.8516C166.922 27.1536 166.672 27.4036 166.359 27.6016C166.047 27.7995 165.685 27.9453 165.273 28.0391C164.867 28.138 164.438 28.1875 163.984 28.1875C163.109 28.1875 162.352 28.0417 161.711 27.75Z" fill="black"/>
<path d="M78.4258 55H67.4199V35.3945H77.9883V38.1562H70.6738V43.707H77.4141V46.4551H70.6738V52.252H78.4258V55ZM93.6152 41L88.2012 55H84.7695L79.6152 41H83.0605L86.1641 50.7891C86.401 51.5091 86.5469 52.138 86.6016 52.6758H86.6426C86.7246 52.0013 86.8522 51.3906 87.0254 50.8438L90.2793 41H93.6152ZM107.41 48.8613H97.8672C97.9036 50.1556 98.3001 51.1536 99.0566 51.8555C99.8223 52.5573 100.87 52.9082 102.201 52.9082C103.696 52.9082 105.068 52.4616 106.316 51.5684V54.125C105.04 54.9271 103.354 55.3281 101.258 55.3281C99.1979 55.3281 97.5801 54.6947 96.4043 53.4277C95.2376 52.1517 94.6543 50.3607 94.6543 48.0547C94.6543 45.8763 95.2969 44.1035 96.582 42.7363C97.8763 41.36 99.4805 40.6719 101.395 40.6719C103.309 40.6719 104.79 41.2871 105.838 42.5176C106.886 43.748 107.41 45.457 107.41 47.6445V48.8613ZM104.348 46.6191C104.339 45.4798 104.07 44.5957 103.541 43.9668C103.012 43.3288 102.283 43.0098 101.354 43.0098C100.442 43.0098 99.6673 43.3424 99.0293 44.0078C98.4004 44.6732 98.013 45.5436 97.8672 46.6191H104.348ZM122.9 55H119.729V47.1113C119.729 44.4954 118.803 43.1875 116.953 43.1875C115.987 43.1875 115.189 43.5521 114.561 44.2812C113.932 45.0013 113.617 45.9128 113.617 47.0156V55H110.432V41H113.617V43.3242H113.672C114.72 41.556 116.233 40.6719 118.211 40.6719C119.733 40.6719 120.895 41.1686 121.697 42.1621C122.499 43.1465 122.9 44.5729 122.9 46.4414V55ZM134.166 54.8496C133.546 55.1595 132.73 55.3145 131.719 55.3145C129.003 55.3145 127.645 54.0111 127.645 51.4043V43.4883H125.307V41H127.645V37.7598L130.816 36.8574V41H134.166V43.4883H130.816V50.4883C130.816 51.3177 130.967 51.9102 131.268 52.2656C131.568 52.6211 132.07 52.7988 132.771 52.7988C133.309 52.7988 133.774 52.6439 134.166 52.334V54.8496ZM136.025 54.5625V51.623C137.21 52.5254 138.518 52.9766 139.949 52.9766C141.863 52.9766 142.82 52.4115 142.82 51.2812C142.82 50.9622 142.738 50.6934 142.574 50.4746C142.41 50.2467 142.187 50.0462 141.904 49.873C141.631 49.6999 141.303 49.5449 140.92 49.4082C140.546 49.2715 140.127 49.1165 139.662 48.9434C139.088 48.7155 138.568 48.474 138.104 48.2188C137.648 47.9635 137.265 47.6764 136.955 47.3574C136.654 47.0293 136.426 46.6602 136.271 46.25C136.117 45.8398 136.039 45.3613 136.039 44.8145C136.039 44.14 136.199 43.5475 136.518 43.0371C136.837 42.5176 137.265 42.0846 137.803 41.7383C138.34 41.3828 138.951 41.1185 139.635 40.9453C140.318 40.763 141.025 40.6719 141.754 40.6719C143.048 40.6719 144.206 40.8678 145.227 41.2598V44.0352C144.242 43.3607 143.112 43.0234 141.836 43.0234C141.435 43.0234 141.07 43.0645 140.742 43.1465C140.423 43.2285 140.15 43.3424 139.922 43.4883C139.694 43.6341 139.516 43.8118 139.389 44.0215C139.261 44.222 139.197 44.4453 139.197 44.6914C139.197 44.9922 139.261 45.2474 139.389 45.457C139.516 45.6667 139.703 45.8535 139.949 46.0176C140.204 46.1725 140.505 46.3184 140.852 46.4551C141.207 46.5827 141.613 46.724 142.068 46.8789C142.67 47.125 143.208 47.3757 143.682 47.6309C144.165 47.8861 144.575 48.1777 144.912 48.5059C145.249 48.8249 145.509 49.1986 145.691 49.627C145.874 50.0462 145.965 50.5475 145.965 51.1309C145.965 51.8418 145.801 52.4616 145.473 52.9902C145.145 53.5189 144.707 53.9564 144.16 54.3027C143.613 54.6491 142.98 54.9043 142.26 55.0684C141.549 55.2415 140.797 55.3281 140.004 55.3281C138.473 55.3281 137.146 55.0729 136.025 54.5625Z" fill="black"/>
</svg>
